<svg id="visual" viewBox="0 0 900 600" width="900" height="600" xmlns="http://www.w3.org/2000/svg" xmlns:xlink="http://www.w3.org/1999/xlink" version="1.1"><rect x="0" y="0" width="900" height="600" fill="#001220"></rect><path d="M0 283L21.5 300.3C43 317.7 86 352.3 128.8 361.5C171.7 370.7 214.3 354.3 257.2 340.2C300 326 343 314 385.8 310.8C428.7 307.7 471.3 313.3 514.2 328C557 342.7 600 366.3 642.8 369.7C685.7 373 728.3 356 771.2 339.7C814 323.3 857 307.7 878.5 299.8L900 292L900 601L878.5 601C857 601 814 601 771.2 601C728.3 601 685.7 601 642.8 601C600 601 557 601 514.2 601C471.3 601 428.7 601 385.8 601C343 601 300 601 257.2 601C214.3 601 171.7 601 128.8 601C86 601 43 601 21.5 601L0 601Z" fill="#fa7268"></path><path d="M0 348L21.5 356.7C43 365.3 86 382.7 128.8 393.8C171.7 405 214.3 410 257.2 404C300 398 343 381 385.8 379.5C428.7 378 471.3 392 514.2 392.2C557 392.3 600 378.7 642.8 376.8C685.7 375 728.3 385 771.2 395.7C814 406.3 857 417.7 878.5 423.3L900 429L900 601L878.5 601C857 601 814 601 771.2 601C728.3 601 685.7 601 642.8 601C600 601 557 601 514.2 601C471.3 601 428.7 601 385.8 601C343 601 300 601 257.2 601C214.3 601 171.7 601 128.8 601C86 601 43 601 21.5 601L0 601Z" fill="#ef5f67"></path><path d="M0 468L21.5 469.7C43 471.3 86 474.7 128.8 460.5C171.7 446.3 214.3 414.7 257.2 415.2C300 415.7 343 448.3 385.8 452.3C428.7 456.3 471.3 431.7 514.2 424.8C557 418 600 429 642.8 434.5C685.7 440 728.3 440 771.2 434.8C814 429.7 857 419.3 878.5 414.2L900 409L900 601L878.5 601C857 601 814 601 771.2 601C728.3 601 685.7 601 642.8 601C600 601 557 601 514.2 601C471.3 601 428.7 601 385.8 601C343 601 300 601 257.2 601C214.3 601 171.7 601 128.8 601C86 601 43 601 21.5 601L0 601Z" fill="#e34c67"></path><path d="M0 513L21.5 502.2C43 491.3 86 469.7 128.8 468.7C171.7 467.7 214.3 487.3 257.2 488.3C300 489.3 343 471.7 385.8 467.8C428.7 464 471.3 474 514.2 473.5C557 473 600 462 642.8 457C685.7 452 728.3 453 771.2 452.5C814 452 857 450 878.5 449L900 448L900 601L878.5 601C857 601 814 601 771.2 601C728.3 601 685.7 601 642.8 601C600 601 557 601 514.2 601C471.3 601 428.7 601 385.8 601C343 601 300 601 257.2 601C214.3 601 171.7 601 128.8 601C86 601 43 601 21.5 601L0 601Z" fill="#d53867"></path><path d="M0 519L21.5 525.5C43 532 86 545 128.8 551C171.7 557 214.3 556 257.2 556.8C300 557.7 343 560.3 385.8 560.2C428.7 560 471.3 557 514.2 546.2C557 535.3 600 516.7 642.8 509.7C685.7 502.7 728.3 507.3 771.2 514.8C814 522.3 857 532.7 878.5 537.8L900 543L900 601L878.5 601C857 601 814 601 771.2 601C728.3 601 685.7 601 642.8 601C600 601 557 601 514.2 601C471.3 601 428.7 601 385.8 601C343 601 300 601 257.2 601C214.3 601 171.7 601 128.8 601C86 601 43 601 21.5 601L0 601Z" fill="#c62368"></path></svg>